<svg width="44.000000" height="44.000000" viewBox="0 0 44 44" fill="none" xmlns="http://www.w3.org/2000/svg"
     xmlns:xlink="http://www.w3.org/1999/xlink">
    <defs/>
    <circle id="椭圆形" cx="22.000000" cy="22.000000" r="22.000000" fill="#FAFAFA" fill-opacity="1.000000"/>
    <path id="形状"
          d="M28.7803 17.8608C28.7803 19.5766 27.9653 20.4841 26.772 21.2908L26.772 21.2925C27.8914 21.6891 29.9919 23.0924 29.9585 25.5208C29.9148 28.4802 27.1904 30.3104 24.0647 30.3104C24.011 30.3104 23.863 30.3171 23.863 30.3171L23.863 32.9236L21.1506 32.9236L21.1558 30.302L19.3357 30.302L19.3406 32.9186L16.5762 32.9186L16.5762 30.3036L13.252 30.3003L13.7847 27.6887C13.7847 27.6887 14.4031 27.7005 14.8184 27.6837C15.1575 27.6573 15.4224 27.38 15.4333 27.04L15.4333 16.9567C15.4333 16.5584 15.0183 15.9853 14.104 15.9853C13.8923 15.9819 13.1528 15.9819 13.1528 15.9819L13.1528 13.6796C13.1528 13.6796 16.0754 13.6812 16.5645 13.6695L16.5676 11.0881L19.3406 11.0881L19.334 13.6812L21.1523 13.6863L21.1472 11.0814L23.8613 11.0764L23.8562 13.6796C24.0278 13.682 24.1995 13.6893 24.3706 13.7014C26.041 13.8611 28.7803 15.1383 28.7803 17.8608ZM19.3357 16.1618C19.7078 16.1618 21.0762 16.1685 21.8901 16.1685C21.9673 16.1685 22.0312 16.1819 22.1035 16.1853C23.2144 16.2357 23.9067 16.6726 24.2781 17.1987C24.5303 17.5566 24.6428 17.9482 24.6428 18.2776C24.6428 18.5885 24.5588 18.9111 24.5034 19.0658C24.4272 19.288 24.3118 19.4946 24.1621 19.6758C24.0439 19.8299 23.9014 19.9639 23.7402 20.0724C23.3252 20.3581 22.7437 20.5833 21.9067 20.6253L21.8645 20.6254C21.5337 20.626 19.373 20.6301 19.3357 20.627L19.3357 16.1618ZM25.0881 26.6451C25.2483 26.4495 25.3723 26.227 25.4546 25.988L25.4546 25.9846C25.5149 25.8182 25.6057 25.4687 25.6057 25.1326C25.5974 24.7141 25.4595 24.3091 25.2109 23.9679C24.8091 23.3999 24.063 22.9294 22.8613 22.8722C22.7825 22.8672 22.7151 22.8504 22.6311 22.8504L19.334 22.847L19.334 27.6753C19.3728 27.6768 21.9739 27.6702 22.54 27.6688L22.5422 27.6688L22.6479 27.6685C23.5537 27.6265 24.1824 27.3828 24.6311 27.0719C24.7622 26.9812 24.8813 26.8972 25.0881 26.6451Z"
          clip-rule="evenodd" fill="#36393F" fill-opacity="1.000000" fill-rule="evenodd"/>
</svg>
