<svg width="24.000000" height="24.000000" viewBox="0 0 24 24" fill="none" xmlns="http://www.w3.org/2000/svg"
     xmlns:xlink="http://www.w3.org/1999/xlink">
    <defs/>
    <mask id="mask1_983" mask-type="alpha" maskUnits="userSpaceOnUse" x="0.000000" y="0.000000" width="24.000000"
          height="24.000000">
        <rect id="蒙版" width="24.000000" height="24.000000" fill="#D8D8D8" fill-opacity="1.000000"/>
    </mask>
    <g mask="url(#mask1_983)">
        <path id="形状"
              d="M14.7412 10.8698L14.6174 10.9473C18.3074 12.2531 20.7749 15.7417 20.7769 19.6559C20.7727 21.3988 19.3586 22.8094 17.6157 22.8094L5.33521 22.8094C3.59375 22.8094 2.18188 21.3975 2.18188 19.6559C2.18408 15.7417 4.65137 12.2531 8.34155 10.9473L8.21753 10.8698C6.354 9.46686 5.59619 7.02942 6.33569 4.81711C7.07544 2.6048 9.14673 1.11322 11.4795 1.11322C13.812 1.11322 15.8835 2.6048 16.623 4.81711C17.3628 7.02942 16.605 9.46686 14.7412 10.8698ZM7.60547 6.5387C7.60547 4.74203 8.84082 3.18115 10.5894 2.76837C12.3379 2.35559 14.1409 3.19922 14.9443 4.80621C15.7478 6.41318 15.3411 8.36176 13.9617 9.51294C12.5823 10.6642 10.5923 10.7159 9.15503 9.63788C8.17944 8.90625 7.60547 7.75806 7.60547 6.5387ZM5.33521 21.2598L17.6157 21.2598C18.5027 21.2598 19.2231 20.543 19.2273 19.6559C19.2231 15.4086 15.781 11.9665 11.5337 11.9622L11.4175 11.9622C7.17139 11.9665 3.73145 15.4099 3.73145 19.6559C3.73145 20.5417 4.44946 21.2598 5.33521 21.2598Z"
              clip-rule="evenodd" fill="#616161" fill-opacity="1.000000" fill-rule="evenodd"/>
        <path id="路径"
              d="M11.4795 13.5118L11.4795 13.5118C11.9958 13.5118 12.2542 13.7701 12.2542 14.2866L12.2542 16.611C12.2542 17.1275 11.9958 17.3858 11.4795 17.3858L11.4795 17.3858C10.9629 17.3858 10.7046 17.1275 10.7046 16.611L10.7046 14.2866C10.7046 13.7701 10.9629 13.5118 11.4795 13.5118Z"
              fill="#616161" fill-opacity="1.000000" fill-rule="evenodd"/>
    </g>
</svg>
