<svg width="24.000000" height="24.000000" viewBox="0 0 24 24" fill="none" xmlns="http://www.w3.org/2000/svg"
     xmlns:xlink="http://www.w3.org/1999/xlink">
    <defs/>
    <mask id="mask1_282" mask-type="alpha" maskUnits="userSpaceOnUse" x="0.000000" y="0.000000" width="24.000000"
          height="24.000000">
        <rect id="蒙版" width="24.000000" height="24.000000" fill="#EBEBEB" fill-opacity="1.000000"/>
    </mask>
    <g mask="url(#mask1_282)">
        <path id="形状"
              d="M0.421051 12C0.421051 18.3948 5.60526 23.5789 12 23.5789C18.3948 23.5789 23.579 18.3947 23.579 12C23.579 5.60519 18.3948 0.421021 12 0.421021C5.60522 0.421021 0.421051 5.60522 0.421051 12ZM21.8422 12C21.8422 17.4357 17.4358 21.8421 12 21.8421C6.56427 21.8421 2.1579 17.4357 2.1579 12C2.1579 6.56424 6.56427 2.15787 12 2.15787C17.4358 2.15787 21.8422 6.56424 21.8422 12Z"
              clip-rule="evenodd" fill="#616161" fill-opacity="1.000000" fill-rule="evenodd"/>
    </g>
    <g mask="url(#mask1_282)">
        <path id="形状"
              d="M11.936 16.9684C11.6907 16.9684 11.4639 16.8703 11.2861 16.6987L7.20267 12.6153C6.84708 12.2597 6.84708 11.6772 7.20267 11.3216L11.2861 7.23822C11.4577 7.06656 11.6907 6.96844 11.936 6.96844C12.1812 6.96844 12.4081 7.06656 12.5859 7.23822L16.6693 11.3216C16.8409 11.4933 16.939 11.7263 16.939 11.9715C16.939 12.2168 16.8409 12.4436 16.6693 12.6214L12.5859 16.6987C12.4142 16.8703 12.1812 16.9684 11.936 16.9684ZM11.936 15.264L8.64352 11.9715L11.936 8.67905L15.2285 11.9715L11.936 15.264Z"
              clip-rule="evenodd" fill="#616161" fill-opacity="1.000000" fill-rule="evenodd"/>
    </g>
</svg>
