<svg width="24.000000" height="24.000000" viewBox="0 0 24 24" fill="none" xmlns="http://www.w3.org/2000/svg"
     xmlns:xlink="http://www.w3.org/1999/xlink">
    <defs/>
    <mask id="mask1_927" mask-type="alpha" maskUnits="userSpaceOnUse" x="0.000000" y="0.000000" width="24.000000"
          height="24.000000">
        <rect id="蒙版" width="24.000000" height="24.000000" fill="#EBEBEB" fill-opacity="1.000000"/>
    </mask>
    <g mask="url(#mask1_927)">
        <path id="形状"
              d="M12 23.5789C5.60547 23.5789 0.421143 18.3948 0.421143 12C0.421143 5.60522 5.60522 0.421021 12 0.421021C18.3948 0.421021 23.5791 5.60519 23.5791 12C23.5791 18.3947 18.395 23.5789 12 23.5789ZM12 21.8421C17.4358 21.8421 21.8423 17.4357 21.8423 12C21.8423 6.56424 17.4358 2.15787 12 2.15787C6.56445 2.15787 2.15796 6.56424 2.15796 12C2.15796 17.4357 6.56445 21.8421 12 21.8421ZM10.0132 12.2249L12.2229 14.6322L12.2227 14.6319C12.2314 14.6414 12.2402 14.6507 12.2495 14.6598C12.5891 14.9984 13.1389 14.9976 13.4775 14.658L17.8254 10.2973C17.8328 10.2903 17.8398 10.2832 17.8467 10.276C18.1794 9.93057 18.1692 9.38083 17.8237 9.0481C17.4783 8.71536 16.9285 8.72568 16.5957 9.07111L12.8884 12.7888L10.6687 10.3705C10.6567 10.3575 10.6445 10.3448 10.6318 10.3326C10.2864 9.99963 9.73682 10.0096 9.40381 10.3549L6.16455 13.7128C5.83154 14.058 5.84155 14.6078 6.18652 14.9408C6.53174 15.2738 7.08154 15.2639 7.41455 14.9188L10.0132 12.2249Z"
              clip-rule="evenodd" fill="#66E0FF" fill-opacity="1.000000" fill-rule="evenodd"/>
    </g>
</svg>
